<svg fill="#000" width="133" height="75" viewBox="0 0 133 75"  xmlns="http://www.w3.org/2000/svg">
<path d="M15.5201 18.3458L9 25.749V43.4821C9 56.5667 9.15402 61.4447 9.61607 61.9612C10.0781 62.4777 14.3906 62.6499 25.942 62.6499H41.6518L48.4286 55.0172L55.2054 47.3271V39.4649C55.2054 35.1033 54.9487 31.0861 54.692 30.4548C54.1786 29.4218 53.5112 29.3645 44.5268 29.3645C37.6987 29.3645 34.6697 29.594 34.2589 30.0531C33.4375 30.9713 33.4375 42.6786 34.2589 43.5969C34.6183 43.9986 36.0558 44.2855 37.5447 44.2855C39.9063 44.2855 40.3683 44.056 41.6005 42.4491C45.7589 36.9398 49.9174 32.2339 50.5848 32.2339C52.279 32.2339 52.6384 33.5538 52.6384 39.5796C52.6384 42.8508 52.3817 46.0072 52.125 46.6385C51.6116 47.6715 50.8929 47.7288 37.75 47.7288C25.8906 47.7288 23.8371 47.6141 23.1696 46.8106C22.4509 46.0646 22.3482 43.769 22.3482 30.5696C22.3482 19.4362 22.5022 15.0747 22.9643 14.5582C23.375 14.0991 25.9933 13.8695 31.3839 13.8695H39.1362L42.2679 17.7145C49.1473 26.3229 48.6339 25.9211 51.5089 25.9211C53.5625 25.9211 54.2299 25.6916 54.692 24.8307C55.2567 23.6256 55.4107 13.4104 54.8973 11.9183C54.6406 11.1148 52.6898 11.0001 38.3147 11.0001H22.0402L15.5201 18.3458Z" />
<path d="M56.2323 56.3371V62.6499H57.5158C58.6452 62.6499 58.7479 62.4203 58.9019 59.3214L59.056 56.0502L60.0314 58.1736C60.7502 59.7805 61.3662 60.3544 62.239 60.3544C63.1118 60.3544 63.7792 59.7231 64.6006 58.1736L65.7301 56.0502L65.8841 59.3214C66.0381 62.4203 66.1408 62.6499 67.2703 62.6499H68.5537V56.2798V49.967L67.1676 50.1392C66.0381 50.2539 65.3707 51 64.1899 53.2955C63.3685 54.9598 62.547 56.2798 62.393 56.3371C62.239 56.3371 61.4689 54.9024 60.6475 53.1808C59.4153 50.4835 59.0046 50.0244 57.7211 50.0244H56.2323V56.3371Z" />
<path d="M72.0447 55.3043C71.018 58.2311 70.0425 61.1006 69.8372 61.6171C69.2724 63.1666 72.4555 63.0518 73.1742 61.5023C73.5849 60.6988 74.2523 60.3545 75.5358 60.3545C76.922 60.3545 77.4354 60.6415 77.6407 61.5023C77.8461 62.3631 78.3595 62.6501 79.5916 62.6501H81.2858L79.4889 57.3703C77.076 50.2541 76.9733 50.0245 75.2791 50.0245C73.893 50.0245 73.6876 50.3689 72.0447 55.3043ZM76.2546 57.026C76.2546 57.6572 75.8438 58.059 75.2278 58.059C74.5604 58.059 74.3037 57.772 74.4577 57.1981C75.2791 54.2713 75.2791 54.3287 75.7412 55.1895C76.0492 55.6486 76.2546 56.5095 76.2546 57.026Z" />
<path d="M82.1072 50.8852C81.8505 51.5165 82.1072 61.5021 82.3639 62.4777C82.4152 62.5925 82.9799 62.6499 83.6987 62.6499C84.7768 62.6499 84.9822 62.363 84.9822 60.9282C84.9822 59.4935 85.1875 59.2066 86.2657 59.2066C87.1384 59.2066 87.7545 59.7231 88.3192 60.9282C88.9353 62.2482 89.4487 62.6499 90.6295 62.6499C92.4264 62.6499 92.4777 62.5351 91.3483 60.5839C90.5782 59.264 90.5782 59.0918 91.3483 58.1162C91.8617 57.4849 92.1697 56.1076 92.1697 54.4433C92.1697 50.8278 91.0916 50.0244 86.1116 50.0244C83.288 50.0244 82.3125 50.2539 82.1072 50.8852ZM89.0893 54.6155C89.0893 56.2224 88.9866 56.3371 87.0358 56.3371C85.0849 56.3371 84.9822 56.2224 84.9822 54.6155C84.9822 53.0086 85.0849 52.8938 87.0358 52.8938C88.9866 52.8938 89.0893 53.0086 89.0893 54.6155Z" />
<path d="M93.71 56.3371V62.6499H95.2501C96.739 62.6499 96.7903 62.5351 96.7903 60.0674C96.7903 58.4031 96.9957 57.4849 97.4577 57.4849C97.7658 57.4849 98.6385 58.6327 99.3059 60.0674C100.333 62.2482 100.795 62.6499 102.027 62.6499C102.848 62.6499 103.464 62.4777 103.362 62.1908C103.259 61.9612 102.643 60.5839 101.976 59.1492L100.743 56.4519L102.13 53.7547C103.824 50.3113 103.824 49.9096 102.078 50.1392C101 50.2539 100.333 50.9426 99.46 52.7217C97.8171 56.0502 96.7903 55.9928 96.7903 52.6069C96.7903 50.1392 96.739 50.0244 95.2501 50.0244H93.71V56.3371Z" />
<path d="M105.005 51C104.953 51.5739 104.902 54.4433 104.851 57.3701L104.748 62.6499H109.266C113.373 62.6499 113.732 62.5351 113.732 61.5021C113.732 60.4691 113.373 60.3544 110.601 60.3544C107.674 60.3544 107.52 60.297 107.674 59.0344C107.828 57.944 108.188 57.7719 110.293 57.5997C112.295 57.4275 112.706 57.2554 112.706 56.2798C112.706 55.3615 112.346 55.1894 110.139 55.1894C107.931 55.1894 107.572 55.0172 107.572 54.0416C107.572 53.0086 107.931 52.8938 110.652 52.8938C113.578 52.8938 113.732 52.8364 113.732 51.4591C113.732 50.0244 113.681 50.0244 109.368 50.0244C105.569 50.0244 105.005 50.1392 105.005 51Z" />
<path d="M114.246 51.4591C114.246 52.7217 114.451 52.8938 116.042 52.8938H117.839V57.7719C117.839 62.5925 117.839 62.6499 119.123 62.6499C120.406 62.6499 120.406 62.5925 120.406 57.7719V52.8938H122.203C123.795 52.8938 124 52.7217 124 51.4591C124 50.0244 124 50.0244 119.123 50.0244C114.246 50.0244 114.246 50.0244 114.246 51.4591Z" />
</svg>
